<svg xmlns="http://www.w3.org/2000/svg" viewBox="0 0 1288.45 1956.35"><defs><style>.cls-1{fill:#282828;}.cls-2{fill:#D93208;}</style></defs><path class="cls-1" d="M1860.15,1883.48a7.69,7.69,0,0,0-3.18-2,69.21,69.21,0,0,0-14.6-2.92,66.92,66.92,0,0,0-14.9.48,7,7,0,0,0-4.54,3.29,7.2,7.2,0,0,0,2.43,9.9l1.71.76a7.32,7.32,0,0,0,3.66.1l.88-.11a49,49,0,0,1,21.3,2.35,7.27,7.27,0,0,0,8.95-4.9A7.13,7.13,0,0,0,1860.15,1883.48Z" transform="translate(-1025.5 -669.65)"/><path class="cls-1" d="M1690.85,2123.56c3.27,2.18,7.94.81,9.9-2.44a7.2,7.2,0,0,0,.86-5.36,7.41,7.41,0,0,0-3.29-4.54c-2.55-1.72-5-3.52-7.45-5.43a100.86,100.86,0,0,1-16.81-17.67,83.36,83.36,0,0,1-9.22-17.15c-.38-1.06-.73-2.13-1.07-3.19a8.59,8.59,0,0,0-1.86-3.4,7.1,7.1,0,0,0-1.43-1.14,7.24,7.24,0,0,0-9.91,2.43,7,7,0,0,0-.85,5.37,90.39,90.39,0,0,0,6.64,15.87,97.34,97.34,0,0,0,9.67,14.31A109.35,109.35,0,0,0,1690.85,2123.56Z" transform="translate(-1025.5 -669.65)"/><path class="cls-1" d="M1640.31,2114.6a7.31,7.31,0,0,0,5.37.85,7.23,7.23,0,0,0,4.54-3.28,7,7,0,0,0,.85-5.37q-1.46-4.74-2.79-9.51a8,8,0,0,0-1.83-3.38,6.72,6.72,0,0,0-1.46-1.16,7.25,7.25,0,0,0-5.36-.86c-3.7.86-6.46,4.87-5.4,8.65q1.33,4.78,2.8,9.52A7.53,7.53,0,0,0,1640.31,2114.6Z" transform="translate(-1025.5 -669.65)"/><path class="cls-1" d="M1041.61,2626q9.33-18.57,18.48-37.22c15.19-31,30.06-62.06,45-93.12q11.22-23.28,22.57-46.51c3.54-7.21,7.12-14.4,10.6-21.64,3.62-7.53,7.11-15.11,10.55-22.73,18.94-42,35.45-85.12,54-127.35,9.15-20.75,18.82-41.26,29.48-61.29q8.16-15.32,17.22-30.13c5.46-9,10.79-18,16.07-27.11,16.74-28.86,33.11-58.12,52.45-85.34-.57,2-1.15,3.9-1.63,5.88a143.93,143.93,0,0,0-3.94,33.66,186.79,186.79,0,0,0,3.64,35.6c.58,3,1.32,6,1.93,9a7.21,7.21,0,1,0,14-3.25c-.91-4.41-1.93-8.78-2.72-13.22q-1.1-6.27-1.76-12.61a151.18,151.18,0,0,1,.77-35.82,130.71,130.71,0,0,1,8.77-30,150.47,150.47,0,0,1,19.69-31.86c.91-1.11,1.84-2.2,2.77-3.3l1.22-1.5a7.23,7.23,0,0,0,.83-2.21c4.66-4.12,9.44-8.1,14.47-11.8a190.64,190.64,0,0,1,18.13-11.37,164.65,164.65,0,0,1,20-9.18,177.44,177.44,0,0,1,18.37-5.56,173.6,173.6,0,0,1,22.2-3.79c28-2.59,56.22-.51,84,3.77,59,9.5,115.67,28.73,172.67,46.08a86.21,86.21,0,0,0-9.64,15.44,88.92,88.92,0,0,0-7.19,22.12c-.1.61-.19,1.22-.29,1.82a7.22,7.22,0,0,0,10.59,6.58,6.94,6.94,0,0,0,3.54-4.35,73.88,73.88,0,0,1,16-35.14,120.21,120.21,0,0,1,9-9.51q-1.29,4.88-2.26,9.81c-3.09,16-3.85,32.21-4.77,48.41a7.21,7.21,0,1,0,14.41.41c.77-13.41,1.4-26.84,3.39-40.13.66-4,1.5-8,2.48-12a146.62,146.62,0,0,0,5.81,34.71,7.52,7.52,0,0,0,3.29,4.54,7.21,7.21,0,0,0,9.9-2.44,7,7,0,0,0,.86-5.36,138.41,138.41,0,0,1-5-25,199.28,199.28,0,0,1,.74-39.75,7,7,0,0,0,.4-2.09c0-.19-.08-.37-.09-.57q.69-6,1.58-11.92c2.06-13,4.76-25.81,7.09-38.72a332.89,332.89,0,0,0,4.7-42.48c1.38-27.5,0-55-.42-82.55-.22-15.73-.07-31.47,1-47.17.75-10.33,2-20.61,3.64-30.85,2.37-14.82,5.31-29.55,9-44.12a321.09,321.09,0,0,1,16.51-50.22c4.79-10.75,10.44-21.22,17.76-30.48a74.74,74.74,0,0,1,8.58-8.67c-.58,1.79-1.26,3.55-1.75,5.37a103.26,103.26,0,0,0-2.38,12,59.7,59.7,0,0,0-.58,11.09,44.26,44.26,0,0,0,6.14,21.59,42.85,42.85,0,0,0,16.64,15h0a7.2,7.2,0,0,0,2.31,2.53c0,.39,0,.78,0,1.18-.07,6.94,0,13.87,0,20.8s.07,14.06.3,21.07c.5,15.1,1.92,30.17,3.92,45.14,2.82,21,7,41.88,11.4,62.63,2.3,10.8,4.68,21.58,7,32.37a254.6,254.6,0,0,1,4.36,27.32c4.84,51.53-4.6,102.93-7.27,154.31-1.29,24.73-1,49.73,3.17,74.21a116.34,116.34,0,0,0,3.67,14.6c1.63,5.36,3.44,10.67,5.19,16,3.37,10.28,6.72,20.73,8,31.52a50.14,50.14,0,0,1-.13,10.32,35.6,35.6,0,0,1-1.87,6.46,36.24,36.24,0,0,1-3.8,6.21,46.36,46.36,0,0,1-7.26,6.74,75.38,75.38,0,0,1-15.33,7.9,136.85,136.85,0,0,1-21.33,5.67c-7.69,1.45-15.49,2.48-23.27,3.28a137,137,0,0,1-32.75-.38q-3.64-.62-7.25-1.49a7.52,7.52,0,0,0-5.41.56,7.22,7.22,0,0,0-3.54,4.34c-1.06,3.63,1.07,8,4.89,8.95a120.48,120.48,0,0,0,21.44,3.1,146.14,146.14,0,0,0,20.18-.47c7.2-.61,14.37-1.56,21.51-2.61a174,174,0,0,0,17.39-3.41c12.89-3.25,25.6-8.32,35.87-16.94a47.63,47.63,0,0,0,6.71-7.12,37.45,37.45,0,0,0,4.78-7.91,40.18,40.18,0,0,0,3-9.36,51.94,51.94,0,0,0,.82-8.89,90.13,90.13,0,0,0-3.22-22c-1.87-7.39-4.3-14.63-6.69-21.86-2.26-6.83-4.54-13.67-6.28-20.66a150.3,150.3,0,0,1-3.26-20.91c-5-51.84,4.45-103.53,7.16-155.2a372.15,372.15,0,0,0-.94-57.15,6.74,6.74,0,0,0,.77,0,56.24,56.24,0,0,1,6.18-1.08,158.5,158.5,0,0,1,15.87-.18,126.2,126.2,0,0,0,17.92-.69,6.94,6.94,0,0,0,4.54-3.29,7.21,7.21,0,0,0-2.43-9.91l-1.71-.75a7.32,7.32,0,0,0-3.66-.1l-.58.07a181.2,181.2,0,0,1-18.5.16l-1.51,0c1.88-1.61,3.82-3.14,5.81-4.61q4.89-3.45,10.1-6.41a7.31,7.31,0,0,0,3-9.75,7.14,7.14,0,0,0-1.08-1.51,7.24,7.24,0,0,0-8.68-1.48c-10.51,6-20.51,13.41-28.37,22.69-.2-1.24-.3-2.48-.53-3.71-1.29-7.06-2.93-14.06-4.45-21.07q-2.35-10.85-4.68-21.71c-3-14.22-5.87-28.48-8.26-42.82-1.79-10.8-3.28-21.64-4.4-32.53q-1.5-15.31-1.87-30.72c-.21-8.75-.21-17.53-.21-26.29,7.32,7.06,14.21,14.55,21,22.11,5.21,5.81,10.39,11.64,15.71,17.33q7.74,8.27,16.05,15.92c22.35,20.59,47,38.47,69.11,59.39q6.49,6.17,12.59,12.74A162,162,0,0,1,2012,1833a64.75,64.75,0,0,1,6.9,13.13c.1.29.18.59.28.88q-10.32,1.55-20.65,3a7,7,0,0,0-4.54,3.29,7.23,7.23,0,0,0,2.43,9.9,7.69,7.69,0,0,0,5.37.86q10.45-1.46,20.9-3c.42,2.41.78,4.83,1,7.27,1.57,17.68-.18,35.49-2.88,53-4.7,29.43-12.58,58.19-20.33,86.93-4,14.76-7.91,29.53-11.37,44.42-1.57,6.77-3.06,13.57-4.31,20.41-1.18,6.49-2.16,13-3.09,19.56-2.61,18.51-4.51,37.12-7.34,55.6-3.16,20-7.36,40.08-15.35,58.77-1.47,3.28-3.06,6.5-4.8,9.66a71,71,0,0,1-5.68,8.93,39.64,39.64,0,0,1-5.77,5.52,37.57,37.57,0,0,1-6.78,3.59,53.9,53.9,0,0,1-11.31,2.42c-1.44.12-2.89.13-4.34.2-15.83-2.94-32.42-1.62-48.16,1.11a222,222,0,0,0-27.94,6.86c-6.13,1.92-12.16,4.17-18.12,6.58-4.67.06-9.33.13-14,.17q-18,.15-36-.09c-11.73-.18-23.45-.57-35.18-.63-82.86-.47-165.41,9.18-246.81,24.11-3.88.71-6.26,5-5.4,8.65a7.29,7.29,0,0,0,3.29,4.55,7.49,7.49,0,0,0,5.36.85c11.83-2.17,23.69-4.19,35.55-6.13a209.89,209.89,0,0,0-23.07,29.55c-11.25,17.19-20.18,35.79-28.21,54.66-15.94,37.48-27.18,76.69-40.3,115.19-3.25,9.52-6.75,18.94-10.24,28.37q-6.26,17-12.45,33.94-12.33,33.81-24.33,67.74c-1.56,4.41-3.09,8.83-4.64,13.24H1405q17.4-49.45,35.51-98.64c5-13.52,10.07-27,14.73-40.6,4.44-13,8.61-26,12.86-39,8.92-27.42,18.11-54.8,29.65-81.26,9.93-22.39,21.61-44.17,36.93-63.39a163.61,163.61,0,0,1,23-23.14,7.41,7.41,0,0,0,.54-.58c21.17-3.11,42.4-5.8,63.69-7.95a1151.24,1151.24,0,0,1,135.31-5.51c11.93.23,23.86.53,35.79.56,8,0,16-.08,23.94-.16,0,.06.09.14.15.2,2.94,0,5.88.06,8.82.22h1.62l1.19-.49h.25c24-.29,48-.72,71.92-.44q17.34.2,34.64,1c9,.44,18,1.13,27,1.67,17.75,1.06,35.73,1.6,53.32-1.5a84.57,84.57,0,0,0,22.93-7.44,65.64,65.64,0,0,0,10.24-6.59,53.27,53.27,0,0,0,9.33-9.41,67.06,67.06,0,0,0,11.92-24.7,122,122,0,0,0,2.82-16.11c.35-2.72.78-5.43,1.17-8.15,4.66-5.54,10.07-10.41,15.31-15.38,5.88-5.57,11.92-10.95,18-16.22,12.3-10.57,25-20.64,37.83-30.61,25.58-20,51.49-39.61,75-62.06,4.42-4.24,8.62-8.7,13-12.95,2.8-2.69,5.69-5.28,8.6-7.84,7.4-6.52,14.93-12.89,22.35-19.38,8-7,16-14.21,23.48-21.8,3.47-3.49,6.84-7.1,10-10.84a111.88,111.88,0,0,0,8.71-11.43,50.42,50.42,0,0,0,5.38-10.8,27.06,27.06,0,0,0,1.09-4.41,53.56,53.56,0,0,0,.76-6.68,59.54,59.54,0,0,0-1-12.21,78,78,0,0,0-3-11.54c-6.21-18.47-16.74-35.23-27.93-51-11.55-16.31-24.17-31.8-37-47.1-4.91-5.84-9.86-11.65-14.68-17.56-3-3.74-6-7.56-9-11.27-4.82-5.87-9.83-11.57-15-17.15q-1.7-1.83-3.4-3.64c-19.46-20.59-41-39.2-63.34-56.54a855.2,855.2,0,0,0-72.62-50,7.26,7.26,0,0,0-5.37-.86l-1.74.66a7.2,7.2,0,0,0-2.79,2.63,62.84,62.84,0,0,0-7.46,11.88,7.14,7.14,0,0,0-1.63,2.77c-.08.5-.15,1-.23,1.51a79.06,79.06,0,0,0-3.68,11.08c-1.91,7.77-2.93,15.73-4.35,23.61-7.69-8.06-15.46-16-23.46-23.78-5.48-5.31-11.1-10.47-16.7-15.66-4.7-4.36-9.42-8.7-14.26-12.9-9.46-8.21-19.46-15.72-30.59-21.49a140.92,140.92,0,0,0-18.43-7.82,198.81,198.81,0,0,0-19.49-5.43c-13.17-3.14-26.52-5.82-39-11.11a81.16,81.16,0,0,1-8.51-4.62c.34-2.85.62-5.71,1-8.55a162.25,162.25,0,0,1,6.58-27,6.72,6.72,0,0,0-1-6,7.34,7.34,0,0,0-1.55-2.64,7.18,7.18,0,0,0-3.16-2,51.74,51.74,0,0,0-25.17-1.31,49.35,49.35,0,0,0-11.31,4,59,59,0,0,0-10.37,6.69c-6.65,5.13-12.13,11.76-16.94,18.61a127.17,127.17,0,0,0-7.95,13c-19.45-13.69-38.46-28-58.7-40.57l-.11,0c-.13-.17-.19-.38-.33-.53a7.25,7.25,0,0,0-5-2.25l-1.84.18a7.22,7.22,0,0,0-3.32,1.78,73.5,73.5,0,0,0-11.39,10.84,50.44,50.44,0,0,0-10.25,18.59,47.81,47.81,0,0,0-1.31,7.11,43.86,43.86,0,0,0,.49,12.37,57.6,57.6,0,0,0,3.71,12.17,71.15,71.15,0,0,0,5.54,10.64,143.46,143.46,0,0,0,16.73,21.46c5.1,5.53,10.51,10.78,16,15.94q4,3.73,8,7.44a147.45,147.45,0,0,1,12.83,12.91c-1.89,9.35-3.59,18.75-5,28.19s-2.58,19-3.29,28.63c-1,13.76-1.21,27.58-1.11,41.38,0,3.64.11,7.29.17,10.94A207.84,207.84,0,0,0,1693,1840c-23.88,8-46.43,19.47-68,32.45-20.18,12.16-39.47,25.7-58.6,39.46a6.61,6.61,0,0,0-1.29.93q-10.33,7.44-20.65,14.9a170.09,170.09,0,0,1-19.71,12.32,185,185,0,0,1-20.86,9.29c-16.52,6.08-33.62,10.31-50.63,14.77-8.78,2.31-17.54,4.71-26.21,7.45-7,2.2-13.87,4.86-20.66,7.68-1.28.5-2.54,1.07-3.82,1.61-2,.84-4,1.62-5.92,2.49-.1.05-.19.13-.29.19l-.21.09a183.94,183.94,0,0,0-34.36,21.32,228.08,228.08,0,0,0-29.44,27.51c-18.83,20.67-34.52,44-49.11,67.78-14.69,24-28.2,48.61-42.68,72.69-3.77,6.29-7.61,12.53-11.28,18.89-4.17,7.23-8.15,14.57-12,22-7.46,14.21-14.38,28.7-21,43.31-19.83,43.57-36.88,88.34-56.12,132.17q-9.64,21.8-20.17,43.16-11.43,23.18-22.64,46.46c-15,31.05-29.86,62.16-45,93.15q-13.2,27.08-26.8,54Zm1023.52-924c23.6,14.87,46.57,30.72,68.58,47.85a33,33,0,0,1-4.22-.19,69.07,69.07,0,0,1-14.57-4.65,161.27,161.27,0,0,1-34-21.26c-6.1-5-12.09-10.42-16.84-16.75-.32-.46-.6-.94-.89-1.42C2063.82,1704.36,2064.41,1703.13,2065.13,1702Zm-12.68,47.12c2-9.08,3-18.44,5.09-27.52.85.92,1.69,1.84,2.57,2.73a177.25,177.25,0,0,0,44.42,31.66,111.76,111.76,0,0,0,12.79,5.35,61.82,61.82,0,0,0,11.93,2.75,31.38,31.38,0,0,0,9.72-.24,25,25,0,0,0,4.77-1.52,15,15,0,0,0,3.2-1.89c21.9,18.13,42.61,37.72,61,59.44,5.87,7,11.4,14.19,17.24,21.18,5.42,6.49,10.89,12.93,16.28,19.43,9.23,11.12,18.26,22.42,26.73,34.12,5.51,7.7,10.76,15.58,15.55,23.75a158.71,158.71,0,0,1,11.41,23.18,76.89,76.89,0,0,1,4.25,16.94,43.91,43.91,0,0,1-.17,9c0,.14-.09.28-.12.43q-9.12-1.5-18-3.84a7.21,7.21,0,0,0-4.06,13.84c5.14,1.35,10.34,2.39,15.56,3.33-1,1.46-2.07,2.93-3.18,4.33a230.46,230.46,0,0,1-20.4,21.18c-7.76,7.27-15.79,14.24-23.85,21.18-6.71,5.8-13.49,11.52-20,17.57-3.8,3.56-7.35,7.37-11.06,11-5.77,5.67-11.73,11.15-17.8,16.51-22.15,19.58-45.88,37.27-69.1,55.54-11.71,9.22-23.3,18.62-34.51,28.46-4.85,4.25-9.55,8.66-14.25,13.09,7.33-41,17.48-81.46,27.83-121.81,2.68-10.48,5.27-21,8.16-31.39,2.65-9.58,5.5-19.1,8.33-28.62.07-.23.13-.47.2-.7a7.37,7.37,0,0,0,5.39-3.29c1.51-2.36,3.13-4.62,4.86-6.82,4.11-4.94,8.62-9.51,13.13-14.09q4.28-4.33,8.3-8.86c.82,1.09,1.65,2.19,2.53,3.21a64,64,0,0,0,8.34,7.7c10.23,8.22,22.2,13.83,34,19.38l1.71.75a7.17,7.17,0,0,0,3.65.1,7.18,7.18,0,0,0,5.4-8.65,7.89,7.89,0,0,0-1.84-3.46,5,5,0,0,0-1.45-1.08c-11.47-5.39-23.09-10.83-33.12-18.68a51.48,51.48,0,0,1-7.94-8.09,30.56,30.56,0,0,1-2.69-4.93,24.44,24.44,0,0,1-.63-2.69c3.18,2.61,6.45,5.11,9.85,7.4A129.31,129.31,0,0,0,2199.3,1959a154.91,154.91,0,0,0,14.85,4.68c5.71,1.52,11.52,2.56,17.28,3.88a7.49,7.49,0,0,0,5.4-.55,7.25,7.25,0,0,0,3.54-4.34,7.57,7.57,0,0,0-1.77-7.14,6.23,6.23,0,0,0-3.12-1.81c-3.35-.77-6.73-1.4-10.1-2.14s-6.86-1.63-10.27-2.59a143.8,143.8,0,0,1-17.89-6.3,118.62,118.62,0,0,1-24.65-14.91,142.17,142.17,0,0,1-24.21-26.18c-1.46-2.08-2.85-4.2-4.24-6.33.9-8.79,1.33-17.7.23-26.48a57.78,57.78,0,0,0-3.71-13.7,74.81,74.81,0,0,0-6.57-12.85,136.7,136.7,0,0,0-16.52-20.58c-.67-.72-1.36-1.43-2-2.15-7-7.23-14.22-14.2-21.17-21.47-8.73-9.14-17.29-18.44-25.86-27.74q-8.62-9.36-17.3-18.68A5.84,5.84,0,0,0,2052.45,1749.1Zm95.74,190.14c0,.23.11.44.14.67a2.75,2.75,0,0,0-.22.26c-4.89,5.91-10.35,11.28-15.71,16.77-.31.31-.61.64-.92,1,2.7-9.84,5.21-19.74,7.36-29.72.88-4.1,1.64-8.24,2.37-12.37,2.69,3.45,5.47,6.84,8.43,10.07l.34.34a6.32,6.32,0,0,0-1,1.86,38.29,38.29,0,0,0-1,5.64A26.84,26.84,0,0,0,2148.19,1939.24Zm-249-276.25c6,1.45,12,2.8,18,4.28a100.88,100.88,0,0,1-17.2-.77,76.91,76.91,0,0,1-16.72-4.74,55.33,55.33,0,0,1-10.48-6.28c-.6-.51-1.14-1.06-1.7-1.59C1880,1658,1889.61,1660.67,1899.15,1663Zm-32.21,6a71.48,71.48,0,0,0,26.83,11,103.9,103.9,0,0,0,22.81,1.89,109,109,0,0,0,21.59-2.71,7.18,7.18,0,0,0,4.53-3.4,127.61,127.61,0,0,1,13.29,7.13,140,140,0,0,1,13.61,9.71c5.43,4.44,10.63,9.13,15.79,13.87,6.85,6.29,13.69,12.61,20.38,19.06,14.52,14,28.31,28.72,42,43.53s27.13,29.62,41.09,44c10.35,10.68,21.46,20.69,30.33,32.68a78.29,78.29,0,0,1,7.74,13.88,198.37,198.37,0,0,0-30.51-5.53,7,7,0,0,0-5.16,2,7.23,7.23,0,0,0-.29,10.2,7.62,7.62,0,0,0,5,2.25c3.6.41,7.2.87,10.78,1.41a145.47,145.47,0,0,1,20.9,4.91,6.76,6.76,0,0,0,2.78.26,132,132,0,0,1-.39,15.54c0,.68-.14,1.35-.2,2a6,6,0,0,0-.58,5.93q-.56,4.74-1.27,9.47c-6.52,39.8-20.7,77.71-30.66,116.67-11.68,45.7-23.86,91.34-32.35,137.77-1.38,7.59-2.64,15.2-3.83,22.82-1.12,7.22-2,14.47-3.05,21.7a80.62,80.62,0,0,1-4.92,17.52,58.29,58.29,0,0,1-6.42,10.62,53.43,53.43,0,0,1-8.26,7.79,62.28,62.28,0,0,1-12.27,6.41,99.94,99.94,0,0,1-22.18,4.77c-17.68,1.61-35.46.31-53.12-.86-7-.46-14-.68-21-1a7.3,7.3,0,0,0,2.14-1.85,51.32,51.32,0,0,0,6.8-1.62,48.42,48.42,0,0,0,7.59-3.16,45.21,45.21,0,0,0,7.54-5.18c4.77-4,8.39-9.21,11.49-14.52a139.4,139.4,0,0,0,8.49-17.63c4.92-12,8.23-24.63,10.86-37.3,5.89-28.38,8-57.35,12.46-86,2.15-13.47,5.17-26.76,8.44-40,3.66-14.85,7.72-29.6,11.69-44.37s7.85-29.48,11.21-44.35c3.16-14,5.76-28,7.68-42.17a224,224,0,0,0,2.27-37.94,137.17,137.17,0,0,0-2.09-19.92,92.9,92.9,0,0,0-5.52-18.55,68,68,0,0,0-9.77-16.3c-3.67-4.67-7.61-9.13-11.68-13.44-1-1-1.94-2-2.92-3-10.61-10.89-22.16-20.82-33.82-30.55-19.48-16.26-39.57-31.9-57.12-50.3-9-9.5-17.56-19.47-26.47-29.1a250.59,250.59,0,0,0-22.49-21.72C1866.82,1671.89,1866.9,1670.45,1866.94,1669Zm-24.69-39.21a121.43,121.43,0,0,1,8.4-26.76c.63-.11,1.25-.26,1.89-.34a42.72,42.72,0,0,1,8.68.27,199.27,199.27,0,0,0-6.44,32.93l-.1.1a7.22,7.22,0,0,0-.85,5.37,5.65,5.65,0,0,0,.34,1c-.65,6.65-1.14,13.31-1.41,20-.46-.32-1-.59-1.4-.93a35.53,35.53,0,0,1-4.79-5,34.73,34.73,0,0,1-3.1-5.84,40.78,40.78,0,0,1-1.76-7.8A60.36,60.36,0,0,1,1842.25,1629.79Zm-107-25.25c15.81,9.92,30.92,20.89,46.08,31.76a103,103,0,0,1-19.7-6,105.43,105.43,0,0,1-21.76-13.19,95.54,95.54,0,0,1-8.78-8.41C1732.44,1607.26,1733.8,1605.86,1735.26,1604.54Zm29.57,89.18c-3.87-3.61-7.73-7.23-11.51-10.93a190,190,0,0,1-20.64-23.18,78.81,78.81,0,0,1-9-16.11,47,47,0,0,1-2.32-9.64,38.44,38.44,0,0,1,.19-7.35,37.76,37.76,0,0,1,1.57-5.29,107.07,107.07,0,0,0,66.76,30.74,339.46,339.46,0,0,0-14.71,45.75c-.4,1.57-.68,3.15-1,4.72C1771.12,1699.46,1767.94,1696.62,1764.83,1693.72ZM1499.62,1966a233.63,233.63,0,0,0,24.23-9.58,9.6,9.6,0,0,0,1.42-.43q4.37-2,8.86-3.78a115.85,115.85,0,0,1,26.46-6.26,101.77,101.77,0,0,1,23.4.6,97.71,97.71,0,0,1,21.5,6.31q2.88,1.32,5.68,2.79a7.52,7.52,0,0,0,5.37.86,7.31,7.31,0,0,0,4.54-3.29,7.5,7.5,0,0,0-.87-8.72,6.05,6.05,0,0,0-1.56-1.18,106,106,0,0,0-24.75-9.44,104.28,104.28,0,0,0-25.45-2.76c-1.62,0-3.21.26-4.82.36l6.48-4.68,3.53-2.54.48-.35,2.68-1.92q3.87-2.77,7.75-5.53c10.11-7.17,20.32-14.2,30.7-21,20.85-13.57,42.53-26,65.5-35.63q4.37-1.83,8.81-3.5a219.15,219.15,0,0,1,52.18-12.61,184.15,184.15,0,0,1,19.65-.69c.44,19,.95,38.09.28,57.14a344.57,344.57,0,0,1-3.59,40.06c-1.7,10.45-3.94,20.82-5.82,31.25q-2.33,12.86-3.93,25.85c-.42.54-.85,1.07-1.25,1.62a7.76,7.76,0,0,0-1.66,1.16c-5.9,4.44-11.72,9-17.26,13.88-2.2,2-4.28,4-6.34,6.09-53.36-16.09-106.27-34.12-161.08-44.84a451,451,0,0,0-64.77-8.19C1497.18,1966.75,1498.41,1966.44,1499.62,1966Z" transform="translate(-1025.5 -669.65)"/><path class="cls-1" d="M1919.3,2251.82l-.62,0,.41,0Z" transform="translate(-1025.5 -669.65)"/><path class="cls-1" d="M1457.14,2288.21a7,7,0,0,0,4.34,3.54l3.19.66a7.63,7.63,0,0,0,5.41-.55,7.21,7.21,0,0,0,3-9.75,7.63,7.63,0,0,0-1.19-1.63,6.33,6.33,0,0,0-3.16-1.91l-3.19-.66a7.59,7.59,0,0,0-5.4.55,7.22,7.22,0,0,0-3,9.75Z" transform="translate(-1025.5 -669.65)"/><path class="cls-1" d="M1741,2235.79a84.93,84.93,0,0,1,9.57.6,7,7,0,0,0,5.16-2,7.23,7.23,0,0,0,.29-10.2,7.67,7.67,0,0,0-5-2.25,85,85,0,0,0-9.56-.6,7.21,7.21,0,0,0-.42,14.41Z" transform="translate(-1025.5 -669.65)"/><path class="cls-2" d="M1585.14,772.25a64.36,64.36,0,0,1-8.89-.49,82.31,82.31,0,0,1-19.75-5.59,120.15,120.15,0,0,1-23.56-14,138.62,138.62,0,0,1-22.52-22.58,122.44,122.44,0,0,1-14.18-24,83.35,83.35,0,0,1-5.7-20.27,61,61,0,0,1-.46-6.48,12.24,12.24,0,0,0-22.61-1.8,89.38,89.38,0,0,1-4.16,12.9,126.49,126.49,0,0,1-14.71,24.62,170.21,170.21,0,0,1-28.49,28.29,151.77,151.77,0,0,1-30.69,18.2,103.49,103.49,0,0,1-17.06,5.33,8.3,8.3,0,0,0-5.11,3.61,9.23,9.23,0,0,0-.27,13.31,9.8,9.8,0,0,0,6.53,2.7c1.27.12,2.53.25,3.79.4a89,89,0,0,1,21.31,5.76,81.23,81.23,0,0,1,18.07,10.63,110.26,110.26,0,0,1,18.89,19.24c23,30.57,34.73,69.77,48,101.71a9.21,9.21,0,0,0,12.61,3.31,9.06,9.06,0,0,0,5.72-6.2,188.37,188.37,0,0,1,11.32-37.1c15.2-35.25,39.93-69.83,69.33-93.11.88,0,1.76,0,2.64,0a9.24,9.24,0,0,0,0-18.47Zm-94.54,119.3c-15.93-41.36-33.36-84.73-70.43-108.73a94.07,94.07,0,0,0-16.12-8.22c31.52-15.56,58.94-43.25,72.36-69.39a124,124,0,0,0,5.87,14c6.14,12.67,16,25.73,26.19,35.9a148.6,148.6,0,0,0,17.29,14.59A115.73,115.73,0,0,0,1559,786.62C1529.8,813.35,1504,852.35,1490.6,891.55Z" transform="translate(-1025.5 -669.65)"/><path class="cls-2" d="M2208.92,1085.72a54,54,0,0,1-8.36-2.52,63.43,63.43,0,0,1-12.42-7.43c-6.87-5.3-12.68-11.78-18-18.57-11.42-15.07-20.35-31.94-27.77-49.3-5.3-12.75-5.14-14.22-6.72-16.59a9.17,9.17,0,0,0-8.37-5.56,9.37,9.37,0,0,0-9,6.78,201.14,201.14,0,0,1-7.86,22.88,208.76,208.76,0,0,1-25.77,43.12c-9.19,11.78-19.2,22.87-29.24,33.93a9.53,9.53,0,0,0-2.7,6.52,9.24,9.24,0,0,0,2.37,6.16,8.52,8.52,0,0,0,3.68,4,135.49,135.49,0,0,1,16.62,10.7,159.33,159.33,0,0,1,26.1,26.58c14,18.53,24.87,39.16,35.59,59.72a8.17,8.17,0,0,0,.71,1.09,9.24,9.24,0,0,0,13.67,5.93l1.87-1.45a9.27,9.27,0,0,0,2.37-4.07c11.92-30.65,18.89-57.69,37.51-82.45a126.84,126.84,0,0,1,17.39-17.9,8.89,8.89,0,0,0,2.7-6.48C2218.21,1095.47,2214.94,1087,2208.92,1085.72Zm-63.51,96.72c-18-33.65-37.59-64.49-69.85-84.8,22.91-25.54,39.93-46.62,52.39-76.69,13,29.3,34.69,65.09,63.86,78.48C2167.12,1123.11,2157.15,1150,2145.41,1182.44Z" transform="translate(-1025.5 -669.65)"/><path class="cls-1" d="M1274.43,1812.73c-11.66,0-22.83,10.25-22.29,22.29s9.8,22.29,22.29,22.29c11.66,0,22.83-10.25,22.29-22.29S1286.93,1812.73,1274.43,1812.73Z" transform="translate(-1025.5 -669.65)"/><path class="cls-1" d="M2206.08,2391.77c-11.66,0-22.83,10.25-22.29,22.29s9.79,22.29,22.29,22.29c11.66,0,22.82-10.25,22.29-22.29S2218.57,2391.77,2206.08,2391.77Z" transform="translate(-1025.5 -669.65)"/><path class="cls-1" d="M1725.94,973c-11.66,0-22.83,10.25-22.29,22.29s9.8,22.29,22.29,22.29c11.66,0,22.83-10.26,22.29-22.29S1738.44,973,1725.94,973Z" transform="translate(-1025.5 -669.65)"/></svg>