<svg xmlns="http://www.w3.org/2000/svg" viewBox="0 0 378.54 1497.8"><defs><style>.cls-1{fill:#D93208;}</style></defs><g id="Layer_2" data-name="Layer 2"><g id="_ÎÓÈ_1" data-name="—ÎÓÈ_1"><path class="cls-1" d="M254.05,414.57l.18,0h0Z"/><path class="cls-1" d="M179.43,634.88a5.24,5.24,0,0,0-5.2,5.2c0,1.91,0,3.82,0,5.73a5.2,5.2,0,0,0,10.4,0c0-1.91,0-3.82,0-5.73A5.24,5.24,0,0,0,179.43,634.88Z"/><path class="cls-1" d="M377.78,392.35a12,12,0,0,0-4.95-7.22c-1.27-.34-2.5-.8-3.74-1.21a19,19,0,0,0-2.81-.62c-1.88-.32-3.78-.58-5.67-.83-3.3-.44-6.61-.76-9.93-1-7.75-.64-15.53-1-23.3-1.31l-13.17-.58c0-2.07-.16-4.13-.14-6.2a5.2,5.2,0,0,0-10.4,0c0,1.89.08,3.76.13,5.65-8.71-.52-17.41-1.22-26.07-2.35-11.21-1.55-22.47-3.79-33-8.1a61,61,0,0,1-12.15-6.89,42,42,0,0,1-6.4-6.32,51.15,51.15,0,0,1-5.5-9.62,74.53,74.53,0,0,1-4.45-17.09,159.25,159.25,0,0,1-.81-24.61c.26-8.8,1-17.58,1-26.38.11-19.33-2.34-38.56-2.39-57.87,3-1.52,6.06-3,9.12-4.5a4.52,4.52,0,0,0,1.91-2,5.28,5.28,0,0,0,6.74-2.05,5.21,5.21,0,0,0,.52-4,5.42,5.42,0,0,0-2.38-3.11,104.7,104.7,0,0,0-13-7.45,5.47,5.47,0,0,0-.4-1.18,3.67,3.67,0,0,0,.07-1q-.87-10.11-1.2-20.25c-.19-6.06-.11-12.13-.27-18.18-.3-11.4-.92-22.87.46-34.22a52.63,52.63,0,0,1,2.84-11.54,39.17,39.17,0,0,1,4.18-6.71c.79-1.06,1.56-2.13,2.25-3.26a26.49,26.49,0,0,0,1.85-3.92c1.56-3.5,3.62-6.74,5.3-10.19a26.61,26.61,0,0,0,2.14-5.65,15.06,15.06,0,0,0,0-7,14.5,14.5,0,0,0-3.42-6,19.06,19.06,0,0,0-3-2.59,31.08,31.08,0,0,0-4-2.44c-1.42-.73-2.9-1.37-4.38-2a9.61,9.61,0,0,0-1.3-.36,43.53,43.53,0,0,0-5.22-.79A36.7,36.7,0,0,0,215.16,56a36.9,36.9,0,0,0,2.77-6.19,46.46,46.46,0,0,0,2.4-12.9,50.46,50.46,0,0,0-1.11-13.42,37.13,37.13,0,0,0-4.7-11.82,25.93,25.93,0,0,0-9-8.84A23.24,23.24,0,0,0,194.1,0c-.53,0-1,0-1.57.05-9,.56-16.88,5.88-22.4,12.75a52.48,52.48,0,0,0-4.3,6.18,54.38,54.38,0,0,0-3.31,6.88,48,48,0,0,0-3.4,14.37,34,34,0,0,0,.06,6.38,33.43,33.43,0,0,0,1.5,7.35,27.62,27.62,0,0,0,2.51,5.3c-1.14.15-2.28.24-3.39.46A27.58,27.58,0,0,0,153.31,62a16.11,16.11,0,0,0-5.08,3.93,17.56,17.56,0,0,0-3.57,6.76,22.87,22.87,0,0,0-.63,4,22.12,22.12,0,0,0,0,3.73,36.27,36.27,0,0,0,.63,4.76,10.45,10.45,0,0,0,2.29,4.4,13.44,13.44,0,0,0,6.25,3.83c1.59.55,3.25.86,4.84,1.41l.37.21c.07.12.14.26.2.39a48,48,0,0,1,2.56,10.24c.41,3.37.64,6.76.86,10.15.26,3.89.47,7.79.5,11.69.08,7.77-.37,15.54-.72,23.29-.64,14.36-.94,28.94,2.22,43a4.47,4.47,0,0,0-1.66.62q-7,4.61-13.94,9.41a5.55,5.55,0,0,0-2.39,3.11,5.21,5.21,0,0,0,3.64,6.4c.11,0,.23,0,.35.06a6.11,6.11,0,0,0,2.33,1.53c3.08,1.13,6.2,2.15,9.32,3.14-.15,4.16-.21,8.33-.23,12.49,0,4.31,0,8.6.14,12.9.3,8.31,1,16.59,1.74,24.87,1.42,16.92,2.83,34,.69,51a91.41,91.41,0,0,1-4.45,17.94,4.33,4.33,0,0,0-1.41,1.56A109.15,109.15,0,0,1,148,355.31,72.22,72.22,0,0,1,136.43,367a96.85,96.85,0,0,1-20,11.38,166.87,166.87,0,0,1-34,9.59c0-.16,0-.33,0-.49a5.21,5.21,0,0,0-10.41,0c0,.71.07,1.42.09,2.14l-.28,0C50.52,392.42,29,392.82,7.48,392.3A5.07,5.07,0,0,0,3,394.89a6,6,0,0,0-.79.52,5.45,5.45,0,0,0-1.52,3.68c-.1,1.42-.15,2.84-.17,4.25,0,.07,0,.13,0,.19a5.39,5.39,0,0,0-.38.76,5.26,5.26,0,0,0,.53,4l.81,1.05a5.3,5.3,0,0,0,2.3,1.34c18.22,7.5,38.24,7.19,57.54,5.59,4.36-.36,8.72-.78,13.09-1.2.3,1.83.57,3.65.94,5.47.57,2.78,3.81,4.35,6.4,3.63a5.26,5.26,0,0,0,3.11-2.39,5.44,5.44,0,0,0,.52-4c-.24-1.2-.41-2.41-.62-3.62,11.89-1,23.8-1.45,35.69,0A93.64,93.64,0,0,1,136.6,418l.43.15a5.16,5.16,0,0,0-.31,1.4,113.43,113.43,0,0,0,.65,16.69c.06.46.12.92.19,1.38a5.06,5.06,0,0,0,1.34,2.3,5.58,5.58,0,0,0,1.1.74,4.8,4.8,0,0,0,1.28,1.79c3.95,62.35,3.46,124.87,3.09,187.31q-.21,36-.17,71.94c.5,3.68.82,7.37,1.07,11.07.17,2.62.33,5.25.41,7.88a6,6,0,0,0,3,.06c1.26-.25,2.53-.46,3.8-.65s2.32-.25,3.5-.34a5.86,5.86,0,0,0,3-1,4.86,4.86,0,0,0,1.42.3,5.25,5.25,0,0,0,5.21-5.21,104.62,104.62,0,0,1,.48-14.91,43.76,43.76,0,0,1,2.39-9.31,29.49,29.49,0,0,1,2.9-5c.48-.58,1.07-1.06,1.59-1.6,0,.28,0,.57,0,.85a11.85,11.85,0,0,0,1.93,5.91,11.06,11.06,0,0,0,4.07,3.52c1.14.56,2.34,1,3.52,1.42.28.14.55.29.81.44l.1.1.15.27a28.93,28.93,0,0,1,1.05,4.8c1.1,9.54-.11,19.17.35,28.74,0,.17.08.3.1.46a5.18,5.18,0,0,0,.59,3.16,5.55,5.55,0,0,0,3.11,2.39l.55.21a24.93,24.93,0,0,1,4.18,2.36,19.46,19.46,0,0,1,2.29,2.25,20.42,20.42,0,0,1,1.7,2.94,34.66,34.66,0,0,1,1.72,7.2c.56,4.61.82,9.39,2.54,13.74a20.66,20.66,0,0,0,4.51,7.14,22.44,22.44,0,0,0,8.67,5.09,4,4,0,0,0,1.54.18,5.13,5.13,0,0,0,2.61.75,5.27,5.27,0,0,0,5.2-5.2c.73-15.52,2.59-31,4.22-46.39.82-7.74,1.55-15.47,2.06-23.23s.71-15.62.93-23.43c.88-31.35.65-62.7,1.21-94.06.23-13.05.51-26.12,1.28-39.15.7-11.71,1.93-23.39,3-35.07,2.08-22.74,3.87-45.92.09-68.59a5.25,5.25,0,0,0,1.64-3.31,5.11,5.11,0,0,0,1.31-3.33q0-9.24.06-18.48,7-1.14,14-2.11l-1,.13,1.13-.15.26,0-.26,0c17.08-2.26,34.24-3.8,51.43-4.86.15,2.57.32,5.14.39,7.71a5.2,5.2,0,0,0,10.4,0c-.07-2.76-.25-5.53-.42-8.29q13.35-.66,26.71-.94,7.59-.15,15.18-.19c2.36,0,4.72,0,7.08,0h4.51a24,24,0,0,1,3.18.11l.65.08a5,5,0,0,0,2.62-.71,5.17,5.17,0,0,0,1.87-7.11C377.82,397.68,377.8,395,377.78,392.35ZM206,283.15c-.17,6.21-.61,12.42-.86,18.63,0,1.19-.08,2.39-.12,3.58-2.12-1.47-4.28-2.88-6.48-4.25-3.87-2.42-7.76-4.8-11.41-7.55a43.78,43.78,0,0,1-6.55-6.36,39.19,39.19,0,0,1,2.39-3.72c4.14-5.12,9.23-9.31,14.27-13.5,2.75-2.28,5.48-4.58,8.08-7,.13-.12.24-.26.38-.38C206,269.42,206.16,276.29,206,283.15ZM187.11,264.9a80.08,80.08,0,0,0-12.65,12.65c-.63-8.25-1.41-16.49-2-24.75-.37-5.43-.63-10.87-.65-16.32,0-2.51,0-5,0-7.55.57.67,1.12,1.35,1.71,2a58.78,58.78,0,0,0,5.7,5.23c4.15,3.41,8.59,6.44,12.85,9.69a65.09,65.09,0,0,1,8.06,7.5A164.53,164.53,0,0,1,187.11,264.9Zm-13.3,58.6A152.28,152.28,0,0,0,175.45,297c7.48,7.58,17.77,12.43,26.32,18.75a64.12,64.12,0,0,1-9.35,9c-5.52,4.16-11.46,7.73-17.31,11.39-1.8,1.13-3.59,2.29-5.36,3.46A91.81,91.81,0,0,0,173.81,323.5Zm29.9-101.94c.06,7.09.38,14.16.81,21.24-1.43-1.34-2.92-2.62-4.45-3.84-3.84-3.07-7.89-5.88-11.81-8.86a60.43,60.43,0,0,1-9.72-9.26l-.52-.75C186.59,220.31,195.14,221.18,203.71,221.56ZM191.2,338.32A112.78,112.78,0,0,0,202.44,330c1.14-1,2.15-2.06,3.2-3.11a96.22,96.22,0,0,0,2.14,12.72,65.15,65.15,0,0,0,3.19,9.67c-12.86,1.52-25.79,1.52-38.72,1.28C178.41,346.23,184.92,342.44,191.2,338.32ZM169.66,38.94a46.22,46.22,0,0,1,2.79-10.06,47,47,0,0,1,5.12-8.82A37.92,37.92,0,0,1,183,14.53a29.1,29.1,0,0,1,4.84-2.87A23.34,23.34,0,0,1,192,10.51a22.24,22.24,0,0,1,4.08,0,18.68,18.68,0,0,1,3.14.86,19.18,19.18,0,0,1,2.71,1.58,21.57,21.57,0,0,1,2.73,2.76,27.75,27.75,0,0,1,2.77,4.82,39.62,39.62,0,0,1,2.23,8.42,47.52,47.52,0,0,1,0,10.86,40,40,0,0,1-2.23,8.46A32.14,32.14,0,0,1,204.07,54c-.5.61-1,1.21-1.56,1.79a5.55,5.55,0,0,0-1.33,2.91l-.3,0c-4.54-.17-9.09-.25-13.62-.29-2.21,0-4.41,0-6.61,0-1.55,0-3.1,0-4.64.06-.06-.05-.1-.12-.15-.17A21.94,21.94,0,0,1,173,55.42,22.45,22.45,0,0,1,171,51.9a27.5,27.5,0,0,1-1.38-5.2A36,36,0,0,1,169.66,38.94ZM154.44,76.66a14.64,14.64,0,0,1,.61-2.34A12,12,0,0,1,155.8,73,12.23,12.23,0,0,1,156.88,72a16.39,16.39,0,0,1,2-1.14,29.51,29.51,0,0,1,5.59-1.4c3.49-.41,7-.54,10.52-.61,3.74-.07,7.49-.06,11.23,0,4.89,0,9.77.12,14.66.3,4.21.16,8.44.35,12.63.87a15.83,15.83,0,0,1,3,.65A33.51,33.51,0,0,1,222,73.64a16.43,16.43,0,0,1,1.53,1.48,9.12,9.12,0,0,1,.47.79c.07.23.14.46.19.7s0,.65,0,1a16.48,16.48,0,0,1-.82,2.67c-.89,2-2,3.85-3,5.75-1.27,2.29-2.37,4.62-3.4,7a.61.61,0,0,0,.05-.12c-1.38,3-3.55,5.53-5.4,8.28a36.44,36.44,0,0,0-4.84,11.66,80.62,80.62,0,0,0-1.94,12.75c-.38,4.33-.46,8.69-.46,13,0,8.31.51,16.62.51,24.94,0,9.42.44,18.83,1.19,28.22-1.44-.13-2.89-.26-4.33-.33-2-.1-3.93-.14-5.9-.14-1.82,0-3.65,0-5.48.09-5.33.16-10.65.61-16,1.13-.69-2.86-1.28-5.74-1.7-8.66-2.42-19.87.64-39.85.16-59.78-.11-4.68-.47-9.36-.85-14a72.37,72.37,0,0,0-2.47-14.77c2,.14,3.92.25,5.89.28,9.2.17,18.38-.69,27.57-.71a5.21,5.21,0,0,0,0-10.41c-12.58,0-25.19,1.58-37.72.06a52.89,52.89,0,0,1-10.72-2.74.43.43,0,0,0,0-.11A26.12,26.12,0,0,1,154.44,76.66Zm12.9,126.92c.12,0,.25,0,.38,0,13.15-1.44,26.48-2.6,39.68-1.3a4.64,4.64,0,0,0,2,2.18c2,.93,4,2,6,3.05q-2.5,1.22-5,2.45a4.89,4.89,0,0,0-1.57-.28,5.14,5.14,0,0,0-3.56,1.47c-10.35-.37-20.67-1.56-31-1.56-1.51,0-3,0-4.51.09a5.74,5.74,0,0,0-1.5.33,5.53,5.53,0,0,0-2.39-1.51c-1.32-.4-2.62-.88-3.93-1.31C163.76,206,165.53,204.76,167.34,203.58ZM26.18,405.93a86.48,86.48,0,0,1-13.62-3.13c20.09.33,40.2-.27,60.15-2.89.12,1.64.23,3.27.39,4.9C57.47,406.34,41.82,407.89,26.18,405.93Zm203.42,27.8c-7.38,1.94-14.71,4.08-22,6.18a142.9,142.9,0,0,1-18.27,4.28,58.38,58.38,0,0,1-14,.08,76.46,76.46,0,0,1-17.59-5.12c-3.43-1.49-6.78-3.12-10.1-4.84a112.79,112.79,0,0,1-.49-12.73c2.38.72,4.78,1.42,7.21,2A104.37,104.37,0,0,0,186.68,426c10.4-.82,20.64-3,30.84-5.07,4-.84,8.08-1.61,12.13-2.39Q229.59,426.15,229.6,433.73Zm-1.26,53.51c-.75,13.71-2.21,27.38-3.44,41-.58,6.47-1.1,12.94-1.46,19.43-.42,7.58-.63,15.18-.84,22.77-.43,15.68-.58,31.37-.7,47.06-.2,25.7-.32,51.42-1.36,77.1-.94,23.27-4.62,46.32-6.21,69.53a14.77,14.77,0,0,1-1.49-1.47,16.49,16.49,0,0,1-1.22-2.11,31,31,0,0,1-1.52-6.46c-.33-2.56-.6-5.13-1-7.68a33.18,33.18,0,0,0-2.33-8.17,22.21,22.21,0,0,0-5-7.19,24.76,24.76,0,0,0-6.46-4.39c-.12-4.64,0-9.27.1-13.9a88.75,88.75,0,0,0-.93-16.12c-.55-3.37-1.56-7.09-4.34-9.34a12.63,12.63,0,0,0-3-1.92c-1-.4-1.94-.77-2.92-1.15a7.55,7.55,0,0,1-.69-.37q-.1-.35-.18-.69a20.34,20.34,0,0,1,.13-3.66c0-.34.11-.68.17-1a5.72,5.72,0,0,0-.38-3.68,4.28,4.28,0,0,0,.17-.46,5.2,5.2,0,0,0-3.63-6.4l-1.38-.19a5.17,5.17,0,0,0-2.63.72,32.82,32.82,0,0,0-11.13,7.91A34.74,34.74,0,0,0,158,687.93a52.1,52.1,0,0,0-2.54,12.85,85.82,85.82,0,0,0-.32,8.64l-.53.05q0-45,.23-90c.18-31.26.33-62.53-.11-93.79-.37-25.94-1.2-51.87-2.74-77.76a93.86,93.86,0,0,0,14.84,5.26,62.5,62.5,0,0,0,11.37,1.74c.5,27.16-.56,54.33-1.73,81.46-.62,14-1.25,28.09-1.7,42.15-.44,13.76-.61,27.51-.61,41.29a5.21,5.21,0,0,0,10.41,0c0-13.46.16-26.91.57-40.36.44-14.05,1.08-28.1,1.69-42.15,1.2-27.52,2.29-55.08,1.78-82.64a123.85,123.85,0,0,0,19.87-4.2c6.23-1.74,12.43-3.53,18.66-5.27.15.94.31,1.87.45,2.81C229.21,461,229.05,474.16,228.34,487.24Zm56.75-86.47q-22.43,2-44.7,5.35c-12.87,2-25.54,4.95-38.33,7.34-3.09.57-6.19,1.08-9.3,1.51a107.31,107.31,0,0,1-26.8.24,111.86,111.86,0,0,1-16-3.58c-3.09-.92-6.12-2-9.14-3.12a85.23,85.23,0,0,0-9-2.7c-11.77-2.87-24.05-3.3-36.11-2.78-4.08.17-8.16.48-12.24.83-.17-1.83-.39-3.65-.52-5.48a194.85,194.85,0,0,0,24.66-5.79A118.23,118.23,0,0,0,137.37,379a76.59,76.59,0,0,0,16.31-14.28c1.21-1.42,2.36-2.89,3.47-4.39a5.45,5.45,0,0,0,1.44.31c9.2.16,18.39.44,27.58.39a222.65,222.65,0,0,0,28.74-1.89,3,3,0,0,0,1.11-.43,44.71,44.71,0,0,0,7,8.39c6.32,5.82,14.06,9.7,22.06,12.66a136.13,136.13,0,0,0,26.78,6.45c10.75,1.64,21.57,2.55,32.41,3.19.22,3.3.43,6.61.69,9.91C298.33,399.74,291.71,400.2,285.09,400.77Zm79-3.21c-3.84,0-7.7,0-11.54.06q-11.22.11-22.42.48c-5,.17-9.9.44-14.85.69-.23-2.94-.41-5.89-.61-8.83,5.75.27,11.5.51,17.25.77,9.34.42,18.7.87,28,2.06,1.2.16,2.4.34,3.59.55a27,27,0,0,1,2.81.61c.35.1.7.23,1.06.35,0,1.09,0,2.18,0,3.27Z"/><path class="cls-1" d="M190.56,380.51a5.2,5.2,0,0,0-8.88-3.68,5.36,5.36,0,0,0-1.52,3.68,106,106,0,0,0,.6,19.51c.06.46.13.92.19,1.38a5.13,5.13,0,0,0,1.33,2.3,5.21,5.21,0,0,0,7.36,0,4.92,4.92,0,0,0,1.52-3.68A106.89,106.89,0,0,1,190.56,380.51Z"/><path class="cls-1" d="M147.6,1417.17c.78,6.45,1.8,12.87,3.12,19.23a161,161,0,0,0,5.18,18.93c4.4,13.12,10.2,25.71,15.07,38.66a5.53,5.53,0,0,0,2.38,3.11,5.21,5.21,0,0,0,7.12-1.87,5.73,5.73,0,0,0,.66-1.85,5.11,5.11,0,0,0,2.75-2.19c9.87-16.85,19.38-34.21,24-53.33a136,136,0,0,0,2.44-14.35c.71-5.3,1.21-10.65,1.62-16,.8-10.39,1.06-20.81,1.13-31.22.14-20.9-.7-41.8-.6-62.69,0-10.64.46-21.28.86-31.9q.63-16.37,1.41-32.74c1-21.82,2.17-43.64,3.14-65.47q.73-16.37,1.29-32.73c.36-10.9.6-21.81.88-32.7,1.1-43.57,2.52-87.14,3.32-130.72,1-52.66,1-105.35-1.46-158a6.26,6.26,0,0,0-.2-.88,4.76,4.76,0,0,0-.66-3.26c-.93-1.34-1.51-2.88-2.45-4.21a25.06,25.06,0,0,0-4-4.08c-2.38-2.15-4.89-4.15-7.42-6.13-4-3.15-8.06-6.26-11.31-10.23a38.08,38.08,0,0,1-4-6.92,87.39,87.39,0,0,1-4.89-20.25c-.94-7.32-1.47-14.74-3.8-21.79a58.61,58.61,0,0,0-5.54-11.81c-.67-1.11-1.39-2.18-2.12-3.26l-.95-1.35a7.92,7.92,0,0,0-2.37-2.55,5.85,5.85,0,0,0-3-.71c-.49,0-1,0-1.48.07a28.41,28.41,0,0,0-3.67.51A19.08,19.08,0,0,0,159,734.4a16.42,16.42,0,0,0-4.28,3.32,23.23,23.23,0,0,0-5.12,9.71A58.05,58.05,0,0,0,148,758.16c-.33,3.61-.5,7.23-.86,10.83a4.76,4.76,0,0,0,1.09,3.16c-4.5,45.38,1.25,90.91,3.13,136.29.49,11.79.56,23.6.5,35.41-.05,12-.28,23.93-.59,35.9-.61,23.92-1.63,47.83-2.6,71.74s-1.92,47.86-2.39,71.8-.46,48-.29,72c.32,47.14,1.35,94.3.09,141.43C145.32,1363.54,144.4,1390.47,147.6,1417.17ZM160.42,747.9a18.43,18.43,0,0,1,1.44-2.52,13.5,13.5,0,0,1,1.31-1.31,13.83,13.83,0,0,1,1.53-.89,16.22,16.22,0,0,1,2.39-.65,61.71,61.71,0,0,1,5.13,9.16,59.64,59.64,0,0,1,3.43,13.49c.75,5.8,1.32,11.62,2.41,17.37,1.33,7,3.29,14,6.82,20.16a44.87,44.87,0,0,0,11,12.3c2.26,1.84,4.59,3.6,6.86,5.44,1.2.95,2.37,1.93,3.53,2.94s2.59,2.24,3.76,3.48c.53.87,1,1.78,1.5,2.66,4.08,87,1.26,174.1-1.13,261.11-.61,21.79-1,43.58-1.79,65.37s-1.84,43.65-2.92,65.47-2.14,43.64-2.94,65.47c-.38,10.54-.68,21.08-.67,31.62s.22,20.88.39,31.31c.41,24.67.59,49.43-2.58,73.94a121.15,121.15,0,0,1-3.2,15.8,125.8,125.8,0,0,1-5.15,14.6c-2.39,5.56-5.08,11-7.93,16.3-.23-18.23-.83-36.46-1.61-54.68a5.2,5.2,0,1,0-10.4,0c.79,18.59,1.4,37.2,1.61,55.81-2.22-5.48-4.41-11-6.4-16.55a165.8,165.8,0,0,1-5.23-17.72c-1.43-6.05-2.48-12.19-3.34-18.34-2.76-21.64-2.73-43.49-2.25-65.26.24-10.84.61-21.67.8-32.51.22-11.76.23-23.54.22-35.31,0-48-1.11-96-.65-143.94s3.11-95.74,4.71-143.62c.8-23.89,1.36-47.81,1.13-71.71-.22-23.52-2.1-47-3.56-70.43-1.83-29.5-3-59.16.39-88.58a4.72,4.72,0,0,0-1.17-3.26c.22-3.09.43-6.17.8-9.24A36.3,36.3,0,0,1,160.42,747.9Z"/><path class="cls-1" d="M181.28,1290.73q.12,6.23.29,12.44c.06,2.2.13,4.4.17,6.6,0,2,0,4,0,6.06a5.2,5.2,0,1,0,10.4,0c0-3.59,0-7.16-.13-10.75-.11-4.14-.2-8.29-.3-12.43q-.27-12-.41-24-.3-24-.13-48,.31-48,2.49-96c.73-16,1.69-32,2.44-48s1.36-32,1.84-48q1.43-47.84,1.26-95.71-.15-51.48-2-102.93a5.21,5.21,0,0,0-10.41,0c2.23,63.95,2.66,128,.92,191.93q-.66,24-1.73,48c-.7,16-1.65,32-2.43,48q-2.31,47.92-2.75,95.92-.26,25.44,0,50.89Q181,1277.79,181.28,1290.73Z"/><path class="cls-1" d="M189.82,1333.15a5.19,5.19,0,0,0-7.36,0,5,5,0,0,0-1.52,3.67c1.06,11.76.85,23.57.81,35.37a5.2,5.2,0,0,0,10.4,0c0-11.8.25-23.61-.81-35.37A5.52,5.52,0,0,0,189.82,1333.15Z"/></g></g></svg>